<svg xmlns="http://www.w3.org/2000/svg" viewBox="0 0 145 121.25"><defs><style>.cls-1{fill:#ef6461;}.cls-1,.cls-2{stroke:#313638;stroke-miterlimit:10;}.cls-2{fill:#e8e9eb;}</style></defs><g id="Layer_2" data-name="Layer 2"><g id="Layer_14" data-name="Layer 14"><polygon class="cls-1" points="0.5 0.81 54.5 27.81 54.5 54.81 45.5 45.81 45.5 36.81 9.5 18.81 9.5 81.81 45.5 99.81 45.5 90.81 54.5 81.81 54.5 117.81 0.5 90.81 0.5 0.81"/><path class="cls-1" d="M90.5,27.81v90l54-27V.81Zm45,54-36,18v-27l25.39-12.7a7.33,7.33,0,0,1,10.61,6.56Zm0-36-36,18v-27l25.39-12.7a7.33,7.33,0,0,1,10.61,6.56Z"/><path class="cls-2" d="M9.5.81h27l36,18,36-18h27l-54,27h-18Z"/><path class="cls-1" d="M57.5,27.81v90c0,3.78,29.9,4.07,30,0,.27-9.12.78-82.51,0-90C87.16,24.26,57.5,23.81,57.5,27.81Z"/></g></g></svg>